<svg height="512pt" viewBox="-40 0 512 512" width="512pt" xmlns="http://www.w3.org/2000/svg"><path d="m427.273438 165.0625-160.667969-160.667969c-2.8125-2.8125-6.628907-4.394531-10.605469-4.394531h-200.835938c-30.417968 0-55.164062 24.746094-55.164062 55.167969v401.667969c0 30.417968 24.746094 55.164062 55.164062 55.164062h321.335938c30.417969 0 55.164062-24.746094 55.164062-55.164062v-281.167969c0-3.980469-1.578124-7.792969-4.390624-10.605469zm-156.273438-113.847656 109.453125 109.453125h-84.289063c-13.875 0-25.164062-11.289063-25.164062-25.167969zm105.5 430.785156h-321.335938c-13.875 0-25.164062-11.289062-25.164062-25.164062v-401.667969c0-13.878907 11.289062-25.167969 25.164062-25.167969h185.835938v105.5c0 30.417969 24.746094 55.167969 55.164062 55.167969h105.5v266.167969c0 13.875-11.289062 25.164062-25.164062 25.164062zm0 0"/><path d="m189.082031 249.292969c-2.542969-5.082031-7.734375-8.292969-13.417969-8.292969-5.679687 0-10.875 3.210938-13.417968 8.292969l-80.332032 160.667969c-3.703124 7.40625-.699218 16.417968 6.710938 20.121093 2.152344 1.078125 4.441406 1.589844 6.695312 1.589844 5.503907 0 10.800782-3.039063 13.429688-8.296875l23.96875-47.941406h85.890625l23.972656 47.941406c3.703125 7.410156 12.714844 10.414062 20.125 6.707031 7.410157-3.703125 10.414063-12.714843 6.707031-20.121093zm-41.363281 96.140625 27.945312-55.894532 27.949219 55.894532zm0 0"/><path d="m336.335938 281.167969h-25.171876v-25.167969c0-8.285156-6.714843-15-15-15-8.28125 0-15 6.714844-15 15v25.167969h-25.164062c-8.285156 0-15 6.714843-15 15 0 8.28125 6.714844 15 15 15h25.164062v25.167969c0 8.28125 6.71875 15 15 15 8.285157 0 15-6.71875 15-15v-25.167969h25.171876c8.28125 0 15-6.71875 15-15 0-8.285157-6.71875-15-15-15zm0 0"/></svg>